# xmcd
#
# Track frame offsets:
#	180
#	11528
#	31657
#	45908
#	62605
#	76445
#	93405
#	103897
#	116157
#	127858
#
# Disc length: 1923 seconds
#
# Revision: 0
# Processed by: cddbd v1.5.1PL0 Copyright (c) Steve Scherf et al.
# Submitted via: dBpowerAMP V4.0
#
DISCID=7107810a
DTITLE=Sam Crosby - No Turnin Back
DYEAR=1900
DGENRE=
TTITLE0=Aint Your Carry On
TTITLE1=No Turnin Back
TTITLE2=Down to the River
TTITLE3=Wet November Wind
TTITLE4=What are you Dreaming
TTITLE5=Waiting for you to say goodbye
TTITLE6=I don't miss you at all
TTITLE7=When I dream
TTITLE8=Gonna
TTITLE9=Lift
EXTD=
EXTT0=
EXTT1=
EXTT2=
EXTT3=
EXTT4=
EXTT5=
EXTT6=
EXTT7=
EXTT8=
EXTT9=
PLAYORDER=
